<?xml version="1.0" standalone="no"?>
<!DOCTYPE svg PUBLIC "-//W3C//DTD SVG 20010904//EN"
 "http://www.w3.org/TR/2001/REC-SVG-20010904/DTD/svg10.dtd">
<svg version="1.0" xmlns="http://www.w3.org/2000/svg"
 width="342.000000pt" height="449.000000pt" viewBox="0 0 342.000000 449.000000"
 preserveAspectRatio="xMidYMid meet">

<g transform="translate(0.000000,449.000000) scale(0.100000,-0.100000)"
fill="#000000" stroke="none">
<path d="M591 4345 l-69 -66 -67 20 c-133 41 -149 24 -87 -92 l42 -79 -45 -73
c-66 -106 -61 -119 38 -104 68 11 79 7 68 -24 -5 -12 -23 -81 -41 -152 -17
-72 -35 -134 -40 -138 -4 -5 -29 -1 -54 7 -72 24 -132 21 -162 -9 -42 -42 -67
-112 -61 -175 3 -39 0 -62 -9 -75 -28 -37 -35 -90 -20 -134 11 -35 12 -47 0
-78 -17 -49 -17 -59 2 -98 11 -24 29 -39 58 -51 42 -18 43 -19 38 -60 -8 -78
43 -169 113 -198 30 -13 32 -18 38 -76 4 -35 7 -95 7 -135 0 -82 8 -94 67
-102 29 -4 45 0 67 18 28 22 28 23 21 101 -3 43 -3 78 2 78 5 0 44 -32 88 -71
172 -153 305 -238 428 -274 60 -17 76 -35 91 -99 5 -22 11 -27 26 -23 26 7 35
-26 26 -98 -5 -45 -3 -56 11 -64 15 -8 15 -11 3 -26 -37 -45 -122 -42 -170 7
-34 34 -40 80 -14 117 15 21 22 23 65 18 l48 -6 -10 27 c-25 67 -79 86 -151
54 -63 -28 -91 -71 -96 -149 -4 -53 0 -72 23 -118 35 -71 98 -134 178 -175 48
-25 63 -38 60 -51 -6 -20 32 -31 117 -34 l55 -2 3 -97 c3 -91 -6 -153 -27
-185 -14 -22 -109 -25 -139 -5 -36 23 -109 22 -158 -4 -118 -61 -174 -227
-128 -382 30 -103 147 -188 314 -231 57 -15 104 -19 195 -17 96 2 126 -1 151
-15 32 -16 141 -46 247 -67 51 -10 57 -14 57 -36 0 -41 29 -85 66 -100 34 -14
57 -50 79 -121 6 -21 3 -23 -30 -23 -113 0 -170 -130 -101 -232 70 -104 248
-129 340 -47 34 29 47 57 80 167 20 69 9 129 -45 242 l-40 84 7 113 c8 132 0
153 -71 184 -41 18 -45 18 -89 2 -69 -26 -76 -8 -18 54 35 39 71 63 142 97 52
25 107 53 122 62 26 17 27 17 62 -14 41 -36 103 -49 163 -33 28 8 57 28 96 70
67 70 77 93 77 169 0 75 -32 142 -99 207 -33 32 -51 58 -51 73 0 20 3 22 23
15 12 -4 51 -8 87 -8 81 0 150 25 204 75 34 31 51 38 98 44 73 8 135 35 175
76 30 31 34 32 50 17 25 -22 107 -39 149 -31 55 10 84 39 84 84 0 50 -19 64
-98 70 -40 3 -67 10 -70 18 -2 7 6 12 24 12 41 0 107 36 127 69 34 58 11 155
-42 168 -14 4 -41 -3 -68 -16 -41 -20 -45 -20 -38 -4 30 66 3 156 -51 169 -52
13 -104 -14 -186 -97 -42 -43 -81 -79 -86 -79 -4 0 -18 13 -30 30 -31 41 -84
50 -135 22 -38 -21 -38 -21 -58 -1 -22 22 -69 25 -107 5 -53 -27 -140 -28
-221 -3 l-74 23 77 12 c96 15 146 40 213 109 95 97 154 250 173 450 5 54 12
107 16 116 6 18 34 37 53 37 20 0 61 -55 61 -81 0 -15 7 -32 15 -39 44 -37 69
55 39 142 -51 142 -195 200 -290 116 -50 -44 -61 -71 -88 -219 -22 -117 -34
-148 -57 -149 -16 0 -69 60 -69 78 0 29 -62 178 -103 247 -78 132 -191 240
-312 300 -226 111 -534 78 -709 -76 -28 -24 -77 -62 -109 -84 -81 -54 -118
-102 -124 -159 -5 -42 -3 -48 27 -76 28 -26 30 -31 13 -35 -63 -20 -101 -55
-129 -123 -1 -1 -13 3 -28 9 -15 7 -45 40 -67 73 -39 59 -40 62 -35 126 7 81
-8 130 -47 148 -27 13 -28 17 -22 60 8 66 -10 151 -40 182 -14 14 -25 37 -25
51 0 76 -50 144 -123 170 -33 12 -38 17 -34 39 3 14 13 71 23 128 10 56 21
102 24 102 3 0 24 -18 45 -40 21 -22 42 -40 47 -40 15 0 29 43 38 118 4 42 12
78 17 80 4 1 42 17 83 35 101 45 101 59 -7 115 l-83 43 -1 52 c0 73 -12 130
-27 135 -7 2 -43 -26 -81 -63z m86 -64 l6 -82 72 -33 c40 -18 75 -38 79 -44 3
-6 -24 -22 -66 -38 -40 -15 -78 -32 -85 -37 -6 -4 -15 -34 -18 -65 -8 -78 -14
-102 -23 -102 -5 0 -32 29 -60 64 l-52 64 -87 -19 c-47 -10 -88 -17 -91 -14
-4 4 10 31 64 123 19 31 19 33 0 65 -41 69 -64 122 -56 130 7 8 120 -17 151
-34 14 -7 30 5 80 56 35 36 66 62 71 57 5 -5 11 -45 15 -91z m-351 -662 c23
-11 30 -22 32 -52 4 -46 -18 -50 -61 -9 -20 18 -31 23 -34 15 -3 -7 -17 -13
-31 -13 -20 -1 -13 -6 28 -20 30 -11 61 -27 69 -35 13 -13 13 -17 -2 -33 -19
-20 -24 -97 -7 -107 18 -11 11 -25 -13 -25 -39 0 -128 50 -148 84 -35 58 -13
160 43 201 26 18 78 16 124 -6z m244 -17 c36 -23 59 -53 66 -88 13 -68 -78
-194 -140 -194 l-21 0 21 18 c42 34 102 180 64 157 -4 -3 -10 5 -13 16 -9 34
-24 13 -29 -41 -3 -28 -11 -57 -17 -63 -10 -9 -11 -6 -6 14 5 21 0 33 -25 58
-17 17 -41 31 -53 32 -21 0 -21 1 -2 9 17 7 17 9 3 9 -19 1 -22 12 -11 50 12
48 103 61 163 23z m-126 -133 c29 -23 33 -41 12 -58 -11 -10 -24 -8 -58 10
-56 28 -54 26 -33 49 23 26 46 25 79 -1z m-58 -76 c-8 -8 -36 5 -36 17 0 7 6
7 21 0 11 -7 18 -14 15 -17z m1201 1 c2 -6 -10 -14 -27 -17 -24 -5 -32 -13
-36 -37 -8 -35 -14 -37 -40 -9 -14 16 -26 19 -50 14 -34 -6 -54 8 -32 21 23
15 133 43 157 41 14 -1 26 -7 28 -13z m243 -14 c52 -16 57 -19 25 -16 -39 5
-40 4 -40 -27 0 -30 -2 -32 -34 -32 -19 0 -36 -5 -38 -11 -10 -31 -32 -46 -71
-49 -27 -2 -42 1 -42 8 0 7 -18 25 -40 41 -22 17 -40 33 -40 38 0 4 16 14 35
22 19 8 38 22 41 31 9 22 122 19 204 -5z m-1558 -75 c29 -10 56 -20 60 -24 14
-12 -19 -85 -43 -94 -52 -19 -151 18 -176 66 -17 33 -13 98 7 122 10 11 19 8
55 -20 24 -18 68 -41 97 -50z m302 -86 c-26 -52 -80 -119 -96 -119 -4 0 -8 38
-8 85 l0 85 28 -6 c19 -4 38 2 62 18 30 21 35 22 38 8 2 -9 -9 -41 -24 -71z
m1277 64 c-6 -11 -11 -13 -11 -5 0 18 -20 5 -20 -14 0 -8 7 -14 15 -14 8 0 15
-4 15 -10 0 -5 -8 -10 -19 -10 -13 0 -20 9 -23 29 -2 17 -1 28 4 25 4 -3 8 0
8 6 0 7 7 10 15 6 8 -3 15 0 15 6 0 6 3 9 6 5 3 -3 1 -14 -5 -24z m-1193 -42
c-4 -42 -66 -193 -67 -165 -1 7 10 51 24 98 14 47 25 95 25 107 0 12 4 17 11
13 7 -4 10 -25 7 -53z m1130 7 c6 -25 15 -34 40 -40 39 -10 40 -22 7 -44 -19
-12 -25 -25 -25 -50 0 -39 -3 -41 -37 -15 -19 16 -30 18 -49 10 -35 -13 -36
-12 -33 19 2 18 -5 39 -19 56 -26 34 -20 49 20 44 23 -4 33 1 49 24 26 36 37
35 47 -4z m-205 -14 c37 -5 46 -11 50 -30 3 -19 1 -23 -12 -20 -9 3 -28 8 -43
12 -16 3 -28 10 -28 15 0 5 -15 9 -32 10 -18 1 -44 5 -58 9 -20 6 -14 8 26 9
28 1 72 -2 97 -5z m597 -67 c17 -23 26 -45 23 -57 -7 -27 -19 -25 -39 5 -12
19 -25 25 -50 25 -37 0 -45 18 -19 40 8 7 15 24 15 38 0 25 0 25 21 6 12 -10
34 -36 49 -57z m-2028 -3 c17 -9 51 -19 76 -23 25 -3 47 -11 49 -17 2 -7 -10
-26 -27 -43 -63 -62 -150 -30 -150 56 0 47 6 51 52 27z m1225 10 c-3 -3 -12
-4 -19 -1 -8 3 -5 6 6 6 11 1 17 -2 13 -5z m288 -14 c3 -6 -1 -7 -9 -4 -18 7
-21 14 -7 14 6 0 13 -4 16 -10z m-274 -20 c10 -6 30 -32 44 -58 16 -31 24 -40
25 -27 1 44 15 49 64 26 38 -19 86 -71 86 -94 0 -13 -71 -19 -85 -7 -10 8 -19
9 -32 1 -16 -9 -16 -10 6 -11 23 0 23 -1 7 -19 -17 -19 -17 -20 13 -36 19 -9
31 -23 31 -35 0 -17 -7 -20 -53 -20 l-53 0 4 34 c6 51 -34 172 -65 196 -30 24
-75 26 -93 5 -16 -19 -34 -19 -50 -1 -8 11 -18 12 -36 6 -23 -9 -24 -8 -14 11
14 26 37 34 54 20 11 -9 22 -8 48 3 40 18 73 19 99 6z m-650 -23 c-10 -9 -11
-8 -5 6 3 10 9 15 12 12 3 -3 0 -11 -7 -18z m1929 -24 c3 -2 -7 -14 -23 -25
-19 -14 -27 -29 -27 -49 0 -34 -6 -35 -39 -10 -21 16 -22 21 -11 42 24 46 43
61 70 54 14 -4 27 -9 30 -12z m-1429 -25 c1 -7 1 -19 0 -25 -1 -7 9 -2 23 12
39 39 88 35 123 -11 22 -30 28 -49 31 -106 4 -59 1 -73 -19 -103 -13 -18 -33
-36 -44 -39 -65 -18 -107 5 -130 69 -10 31 -15 36 -20 23 -10 -26 -20 -23 -65
22 -46 46 -44 63 16 129 36 40 83 56 85 29z m458 -103 c28 -14 101 -91 101
-106 0 -4 -9 -9 -19 -11 -19 -3 -18 -7 9 -92 16 -49 27 -93 24 -97 -2 -5 4
-35 15 -67 11 -33 23 -79 26 -103 l6 -44 -16 28 c-9 15 -19 27 -23 27 -4 0 -8
-46 -8 -103 -3 -221 -88 -410 -236 -522 -62 -47 -158 -98 -167 -90 -2 3 14 21
35 39 61 52 104 140 109 223 2 37 2 59 -1 48 -40 -162 -56 -196 -114 -249 -56
-50 -71 -55 -215 -62 -123 -7 -124 -7 -180 22 -99 50 -175 158 -175 248 1 42
33 110 61 130 41 28 129 17 129 -16 0 -4 -14 -8 -30 -8 -47 0 -80 -39 -80 -93
0 -75 60 -127 147 -127 69 0 114 53 112 132 -1 24 -4 33 -6 21 -2 -12 -10 -26
-16 -31 -9 -8 -12 11 -14 76 -1 62 -6 90 -18 101 -13 14 -15 13 -15 -7 0 -34
-17 -26 -31 15 -6 20 -20 50 -30 67 -21 38 -28 78 -13 83 6 2 19 -15 29 -37
10 -22 25 -40 34 -40 9 0 28 -21 43 -48 31 -55 72 -97 110 -111 24 -9 30 -7
47 16 22 27 47 26 58 -3 10 -26 -29 -173 -58 -219 -43 -67 -91 -98 -160 -103
-51 -4 -65 -1 -115 28 -68 38 -67 17 1 -25 40 -25 59 -30 111 -30 54 0 68 4
106 31 23 17 55 49 69 70 32 48 67 153 71 214 2 37 7 46 24 48 14 2 24 -5 32
-23 15 -32 58 -34 119 -3 44 22 85 76 98 131 4 15 13 27 20 27 8 0 21 25 30
58 14 46 16 78 11 162 -4 58 -11 156 -15 217 -6 105 -9 116 -39 158 -45 65
-44 77 7 50z m-36 -54 c28 -27 32 -38 35 -101 3 -42 -1 -82 -8 -100 -19 -45
-65 -80 -106 -80 -43 0 -43 -12 -2 -32 l32 -15 -47 -18 c-45 -17 -97 -17 -139
0 -22 9 -23 -8 -2 -29 14 -15 12 -16 -20 -16 -19 0 -38 5 -41 10 -4 6 -23 17
-43 26 -166 69 -51 189 133 139 40 -10 78 -15 99 -11 42 8 86 57 86 94 l-1 27
-13 -31 c-28 -63 -85 -79 -182 -49 -60 18 -88 18 -136 1 -32 -12 -38 -12 -38
0 0 8 15 23 33 35 29 18 42 19 134 14 l102 -7 15 37 c21 50 20 91 -3 114 -26
26 -15 34 38 28 31 -3 52 -13 74 -36z m-512 -41 c31 -33 59 -60 63 -60 4 0 20
-10 36 -22 23 -17 27 -24 18 -35 -9 -11 -14 -11 -30 4 -18 16 -19 16 -12 -24
7 -49 -7 -61 -84 -69 -93 -11 -190 71 -178 149 8 47 31 83 65 102 45 24 63 18
122 -45z m809 5 c57 -30 78 -120 44 -192 -18 -37 -44 -58 -86 -68 -36 -9 -59
16 -92 103 l-27 70 20 40 c29 57 85 76 141 47z m-420 -55 c-13 -25 -41 -40
-66 -35 -10 2 -32 7 -49 10 l-30 7 24 19 c16 13 39 19 77 19 51 0 54 -1 44
-20z m-619 -106 c35 7 38 -8 8 -40 -30 -32 -89 -5 -89 41 0 32 9 36 32 13 15
-15 28 -19 49 -14z m-60 -60 c32 -18 64 -17 79 1 17 21 27 19 62 -10 16 -14
38 -25 49 -25 11 0 29 -5 40 -10 18 -10 18 -13 4 -40 -8 -16 -28 -36 -43 -44
-38 -20 -122 -31 -122 -17 0 6 5 11 10 11 6 0 10 5 10 10 0 6 -9 10 -21 10
-11 0 -29 5 -39 10 -25 13 -66 86 -74 130 -7 34 -6 34 7 11 8 -13 25 -30 38
-37z m850 -6 c0 -2 4 -43 8 -93 9 -100 -6 -192 -33 -207 -9 -5 -16 -16 -16
-24 0 -25 -30 -81 -58 -110 -37 -37 -90 -58 -107 -44 -18 15 -9 37 19 44 57
14 142 115 160 189 10 44 -11 31 -34 -20 -37 -83 -99 -134 -187 -153 -72 -16
-121 -1 -168 51 -42 47 -47 94 -8 94 34 1 38 13 7 21 -22 6 -31 2 -46 -16 -10
-12 -18 -32 -18 -44 0 -29 33 -80 69 -107 33 -24 31 -49 -4 -49 -30 0 -96 72
-121 133 -12 31 -25 47 -36 47 -31 0 -20 32 25 71 53 49 104 53 143 13 22 -21
25 -31 19 -62 -4 -20 -12 -40 -18 -44 -8 -5 -4 -16 14 -33 31 -31 112 -43 175
-26 109 29 168 117 186 275 7 53 15 96 20 96 4 0 8 -1 9 -2z m-950 -73 c29 6
31 5 24 -11 -15 -36 -17 -62 -6 -68 6 -4 11 -11 11 -17 0 -18 -32 -9 -76 23
-36 26 -44 37 -44 63 0 43 9 49 36 24 18 -16 29 -19 55 -14z m382 5 c-3 -11
-7 -20 -9 -20 -2 0 -4 9 -4 20 0 11 4 20 9 20 5 0 7 -9 4 -20z m1117 -23 c11
-23 23 -33 43 -35 34 -4 35 -17 2 -38 -17 -11 -25 -25 -25 -45 0 -33 -6 -35
-39 -13 -18 13 -28 14 -47 5 -34 -15 -33 -15 -27 22 4 24 0 37 -16 51 -30 27
-26 36 14 36 26 0 39 6 51 25 21 32 26 31 44 -8z m-1012 -39 c21 -21 13 -29
-25 -22 -45 8 -47 9 -38 23 8 15 48 14 63 -1z m860 -202 c24 -15 42 -29 40
-32 -3 -2 -30 1 -62 7 -51 11 -59 16 -76 50 -22 42 -64 79 -90 79 -25 0 -37
18 -45 70 l-7 45 98 -96 c55 -53 119 -108 142 -123z m-516 152 c-7 -7 -12 -22
-12 -34 0 -52 -130 -109 -190 -84 -36 15 -38 33 -8 54 31 22 35 20 42 -14 7
-40 17 -37 39 9 13 28 30 46 60 60 47 24 89 29 69 9z m1557 -151 c41 -50 6
-130 -83 -187 -44 -30 -61 -35 -138 -40 -105 -8 -127 -20 -36 -20 51 0 76 -6
118 -27 72 -37 94 -68 85 -121 -8 -48 -65 -119 -112 -138 -38 -16 -143 -19
-143 -4 0 24 41 89 60 95 11 4 41 -1 65 -11 33 -12 51 -14 67 -7 20 9 18 11
-23 21 -47 12 -82 40 -77 63 2 10 -13 13 -62 14 -36 0 -78 4 -95 9 -27 8 -29
8 -17 -6 7 -9 26 -21 41 -28 60 -24 42 -105 -29 -134 -49 -19 -59 -15 -52 19
6 33 -5 32 -44 -6 -25 -24 -42 -31 -90 -36 -32 -3 -64 -10 -70 -15 -25 -19
-64 18 -64 60 0 11 9 30 19 43 16 20 28 24 79 24 64 1 106 23 96 50 -8 19 59
89 146 153 41 30 113 92 160 137 47 45 94 87 105 93 28 16 80 15 94 -1z
m-1082 -57 c3 -11 13 -20 22 -20 10 0 25 -6 35 -13 16 -11 15 -14 -14 -36 -24
-17 -30 -28 -26 -45 8 -34 -4 -39 -31 -14 -20 18 -26 20 -48 10 -39 -18 -44
-15 -35 18 7 23 4 35 -11 54 -26 33 -24 36 16 36 22 0 38 6 41 15 9 22 45 19
51 -5z m1237 -86 c22 -22 20 -80 -3 -103 -28 -28 -108 -61 -149 -61 -30 0
-122 42 -122 55 0 7 233 124 247 124 6 1 19 -6 27 -15z m-1363 -143 c24 -11
62 -27 84 -36 38 -15 39 -17 21 -30 -14 -10 -24 -11 -38 -4 -10 6 -27 7 -37 4
-20 -6 -74 33 -92 66 -13 25 5 25 62 0z m1289 -108 c73 -7 111 -32 94 -60 -13
-21 -44 -31 -104 -32 -65 -1 -92 16 -102 63 -9 44 4 61 34 45 9 -5 45 -12 78
-16z m-1531 -177 c10 -11 19 -13 38 -5 34 13 47 -1 32 -34 -9 -19 -9 -34 0
-58 l11 -32 -35 6 c-30 5 -38 2 -51 -19 -21 -32 -33 -30 -40 4 -4 21 -15 32
-40 41 -42 15 -43 29 -4 44 21 8 30 18 30 33 0 39 10 55 29 44 10 -5 23 -16
30 -24z m-147 -71 c1 -11 19 -28 38 -37 28 -14 34 -23 32 -43 -2 -14 1 -25 7
-25 6 0 11 -7 11 -16 0 -9 -6 -14 -12 -11 -7 2 -26 -7 -43 -21 -23 -19 -37
-23 -67 -19 -25 3 -38 1 -38 -6 0 -7 -5 -4 -11 6 -6 9 -14 15 -18 13 -4 -3 -8
1 -8 9 0 20 14 19 27 -2 6 -10 9 -11 6 -3 -3 8 -9 23 -12 33 -4 9 -10 17 -15
17 -5 0 -9 9 -9 20 0 11 5 20 10 20 6 0 10 6 10 14 0 7 7 19 15 26 8 7 12 16
9 21 -3 5 9 6 26 3 24 -5 30 -3 30 10 0 11 -5 14 -12 10 -7 -5 -8 -3 -3 5 9
15 22 4 27 -24z m-82 -15 c0 -5 -5 -10 -11 -10 -5 0 -7 5 -4 10 3 6 8 10 11
10 2 0 4 -4 4 -10z m838 -127 c21 -57 23 -83 6 -83 -12 0 -14 -6 -9 -29 8 -39
-22 -71 -68 -71 -40 0 -63 16 -71 51 -5 24 -3 27 30 32 37 6 74 32 74 51 0 13
-49 38 -61 30 -13 -8 -11 20 3 34 7 7 29 12 49 12 31 0 38 -4 47 -27z m-928
10 c0 -4 -10 -17 -22 -30 -17 -18 -22 -34 -19 -60 3 -36 3 -37 -21 -21 -12 8
-23 21 -22 27 1 6 2 29 3 51 1 40 1 40 41 40 22 0 40 -3 40 -7z m235 -23 c3
-5 1 -10 -4 -10 -6 0 -11 5 -11 10 0 6 2 10 4 10 3 0 8 -4 11 -10z m-60 -40
c-3 -5 -15 -10 -25 -10 -10 0 -22 5 -25 10 -4 6 7 10 25 10 18 0 29 -4 25 -10z
m-552 -117 c4 -3 0 -17 -9 -31 -14 -21 -14 -28 -3 -51 7 -14 15 -30 17 -34 2
-5 -13 -5 -33 -1 -33 6 -40 3 -59 -21 l-23 -28 -10 40 c-9 37 -8 44 15 73 31
39 90 69 105 53z m593 -298 c20 -22 27 -24 45 -15 11 7 27 9 36 6 13 -6 13 -9
-2 -32 -14 -21 -15 -31 -6 -51 17 -37 14 -42 -23 -36 -28 4 -37 1 -48 -16 -17
-28 -24 -27 -36 9 -7 19 -20 32 -36 36 -33 8 -33 27 -2 42 17 8 27 22 32 47 3
19 9 35 11 35 3 0 16 -11 29 -25z m224 -260 c33 -17 38 -36 15 -55 -23 -19
-141 -7 -173 17 -43 32 -38 42 25 46 32 2 68 4 81 5 13 1 36 -5 52 -13z"/>
<path d="M1488 3003 c7 -3 16 -2 19 1 4 3 -2 6 -13 5 -11 0 -14 -3 -6 -6z"/>
<path d="M1207 2998 c-13 -10 -18 -24 -15 -43 3 -25 7 -29 33 -29 27 0 30 4
33 33 3 27 0 32 -12 28 -8 -3 -16 0 -18 9 -3 13 -6 13 -21 2z"/>
<path d="M1875 2815 c-16 -15 -25 -36 -25 -55 0 -25 4 -30 25 -30 27 0 34 -17
10 -26 -19 -8 -20 -24 -1 -24 15 0 76 82 76 103 0 7 4 6 10 -3 8 -13 10 -12
10 3 0 23 -35 57 -60 57 -12 0 -32 -11 -45 -25z"/>
<path d="M2930 2761 c0 -10 -8 -12 -30 -8 -24 5 -35 1 -55 -21 -14 -15 -25
-21 -25 -14 0 6 -5 12 -11 12 -6 0 -8 -9 -3 -22 10 -34 12 -34 42 -5 20 19 39
27 65 27 39 0 43 5 27 30 -8 12 -10 12 -10 1z"/>
</g>
</svg>
